<svg version="1" id="tacoimg" xmlns="http://www.w3.org/2000/svg" xmlns:xlink="http://www.w3.org/1999/xlink" x="0px" y="0px"
	 viewBox="0 0 512 512" enable-background="new 0 0 512 512" xml:space="preserve">
<g>
	<path fill="#A0C130" d="M485,333"/>
	<path fill="#A0C130" d="M483,334"/>
	<path fill="#A0C130" d="M483,334c0-2,18-2,18-12c0-16-25-21-32-35c-7-14,6-40-4-52
		c-9-12-38-7-49-17c-11-10-9-39-22-47c-13-8-38,7-52,1c-14-6-22-33-38-36
		c-15-3-32,20-48,20c-16,0-33-23-48-20c-15,3-24,31-38,36c-15,6-39-9-52-1
		c-13,8-11,37-22,47c-11,10-40,5-49,17c-9,12,3,38-4,52c-7,14-33,16-30,31
		c2,8,13,14,14,15c5,2,11,2,13,6c14,29,23,20,55,20c32,0,32-25,64-25c32,0,32,25,64,25
		c32,0,32-25,64-25c32,0,32,25,64,25c32,0,31-20,63-24c33-4,34-0,66-0"/>
</g>
<g>
	<path fill="#D95B1F" d="M473,330c2-10,7-21,3-29c-5-12-27-14-34-24c-7-10-2-31-10-40
		c-9-9-30-4-40-12c-10-8-11-29-23-35c-11-6-30,5-42,1c-12-4-20-24-33-26
		c-12-2-26,14-39,14c-13,0-27-16-39-14c-13,2-21,22-33,26c-12,4-31-7-42-1
		c-11,6-13,27-23,35c-10,8-31,3-40,12c-9,9-3,30-10,40c-7,10-29,13-34,24
		c-4,9,2,21,3,31"/>
</g>
<g>
	<path fill="#EEC32E" d="M466,362c11,0,19-10,16-21C453,243,363,172,256,172S59,243,30,341
		c-3,10,5,21,16,21H466z"/>
</g>
<circle fill="#DBAD2A" cx="92" cy="332" r="10"/>
<circle fill="#DBAD2A" cx="150" cy="244" r="10"/>
<circle fill="#DBAD2A" cx="246" cy="323" r="10"/>
<circle fill="#DBAD2A" cx="304" cy="253" r="10"/>
<circle fill="#DBAD2A" cx="363" cy="297" r="10"/>
<circle fill="#DBAD2A" cx="227" cy="267" r="10"/>
<circle fill="#DBAD2A" cx="442" cy="323" r="10"/>
</svg>